<svg id="Layer_1" data-name="Layer 1" xmlns="http://www.w3.org/2000/svg" viewBox="0 0 120 120"><defs><style>.cls-1{fill:#ea1267;}.cls-2{fill:#1b1d4c;}</style></defs><title>Food Philosophy</title><path class="cls-1" d="M69.75,56.45a.34.34,0,0,0-.14.36l2.21,16.72a27.67,27.67,0,0,0,.94-29.29l.55,4A8.61,8.61,0,0,1,69.75,56.45Z"/><path class="cls-1" d="M66.87,66l-3.54.47,1.42,10.64c1.25.5,2.51.94,3.76,1.33C67.58,71.49,66.87,66,66.87,66Z"/><path class="cls-1" d="M59.37,54.28a4.29,4.29,0,0,1,2.82,3.51l.63,4.8,3.53-.46-.64-4.8a4.31,4.31,0,0,1,1.83-4.13,4.65,4.65,0,0,0,1.88-4.39l-2.12-16L65.62,33l1.75,13.28a2,2,0,0,1-1.69,2.2l-.26,0a2,2,0,0,1-1.94-1.71L61.73,33.56l-1.85.24,1.75,13.27a2,2,0,0,1-.39,1.46,2,2,0,0,1-1.3.75h-.26a2,2,0,0,1-1.94-1.7L56,34.32l-1.69.22,2.1,16A4.61,4.61,0,0,0,59.37,54.28Z"/><path class="cls-1" d="M39.85,57.08l-.22.18a53.65,53.65,0,0,0,20.91,18l-2.24-17a.4.4,0,0,0-.23-.32,8.58,8.58,0,0,1-5.56-7L50.27,34.1a3,3,0,0,1,2.55-3.33l.42-.05a27.71,27.71,0,0,0-12.48.8l1,21.14A5.46,5.46,0,0,1,39.85,57.08Z"/><path class="cls-1" d="M32.45,38.75a44.51,44.51,0,0,0,5.1,15.08,1.5,1.5,0,0,0,.3-1c-.59-12.18-.89-18.41-1-21.58S36.65,28,36.65,28a1.51,1.51,0,0,0-.55-1.1,1.44,1.44,0,0,0-.92-.33,1.57,1.57,0,0,0-1.57,1.35S33.08,32.72,32.45,38.75Z"/><path class="cls-1" d="M93.33,58.13a44.41,44.41,0,0,1-5.59,21.68c16.05-3.32,28.16-18.3,28.16-36.29,0-21.11-9.39-37-34.9-37-22.86,0-38.54-1.07-45.3,8.91A44.6,44.6,0,0,1,93.33,58.13Z"/><path class="cls-1" d="M32.63,23.23a5.37,5.37,0,0,1,4.5-.27,5.39,5.39,0,0,1,3.41,4.54,31.6,31.6,0,0,1,21.82,2l5.38-.71.39,0a3,3,0,0,1,2.94,2.57l.66,5A31.65,31.65,0,0,1,72.54,79l.07.52a39.57,39.57,0,0,0,8.39,1c.58,0,1.17,0,1.76,0a40.7,40.7,0,0,0-46.3-61.13L35,19.81l-.69.25-1,.39A26.24,26.24,0,0,0,32.63,23.23Z"/><path class="cls-2" d="M4.1,58.13A44.52,44.52,0,0,1,10.38,35.3,8.94,8.94,0,0,0,6.29,32a2.39,2.39,0,0,1,0-4.47c3.66-1.37,5.28-5,5.91-7a2.39,2.39,0,0,1,2.29-1.68,2.37,2.37,0,0,1,2.27,1.68A13.43,13.43,0,0,0,19,24.85l.18-.16c.59-.53,1.21-1.05,1.84-1.54.11-.1.6-.46.6-.46.62-.47,1.25-.92,1.88-1.36l.17-.12.22-.17L24,21a43.46,43.46,0,0,1,5.88-3.31l.1-.06.43-.19,1.16-.49c.35-.15.71-.3,1.09-.44s.65-.24,1-.36.87-.31,1.32-.46l.57-.19h0l.13,0a18.23,18.23,0,0,0-2.37,5l-.23.1-.86.37a40.33,40.33,0,0,0-6.54,3.66c-.5.35-1,.7-1.47,1.06l-.23.18c-.14.1-.3.21-.43.32-.52.41-1,.81-1.45,1.19q.28.14.57.24a2.39,2.39,0,0,1,0,4.48c-3.67,1.36-5.29,5-5.93,7a2.39,2.39,0,0,1-4.3.56A40.9,40.9,0,0,0,8,58.13a40.47,40.47,0,0,0,15,31.55l1.21-11.4a31.64,31.64,0,0,1,4.82-45l.62-5.8a5.48,5.48,0,0,1,2.93-4.23,42,42,0,0,0-.73,8.32,45.48,45.48,0,0,0,.55,7.2c-1,9-2.22,20.72-2.5,23.29l3.54.38L33.86,59a5.44,5.44,0,0,1,1.89-3.58l1.56-1.32a2,2,0,0,0,.24-.26,39.6,39.6,0,0,0,2.08,3.43l-.34.27c-.73.57-1.42,1.1-1.53,1.88l-2.46,23a27.67,27.67,0,0,0,26.22.33l-1-7.5c1.4.69,2.79,1.32,4.21,1.87l4.11,31.11a1.54,1.54,0,0,0,1.65,1.32,2.1,2.1,0,0,0,1.55-.64,1.44,1.44,0,0,0,.32-1.15c0-.09-2.25-17-3.87-29.31,1.37.42,2.75.79,4.1,1.08L74,90a41.49,41.49,0,0,0,8.77-9.54,32.76,32.76,0,0,0,5-.64,44.38,44.38,0,0,1-7.48,9.87,43.63,43.63,0,0,1-5.68,4.81l1.68,12.77a5.44,5.44,0,0,1-1.07,4,5.65,5.65,0,0,1-4.54,2.19A5.58,5.58,0,0,1,65,108.75l-1.14-8.62a44.9,44.9,0,0,1-30.42-.07c-.89,8.38-.9,8.56-.9,8.56a5.23,5.23,0,0,1-2.05,3.63,6.21,6.21,0,0,1-3.71,1.23,5.64,5.64,0,0,1-4.41-2,5.56,5.56,0,0,1-1.19-4l1.42-13.13A44.68,44.68,0,0,1,4.1,58.13ZM14.49,34.47a13.86,13.86,0,0,1,4.08-4.66,13.9,13.9,0,0,1-4.08-4.67,14.06,14.06,0,0,1-4.1,4.67A14.12,14.12,0,0,1,14.49,34.47ZM48.71,98.82a40.54,40.54,0,0,0,14.59-2.7l-1.23-9.25a31.35,31.35,0,0,1-13.36,3,31.69,31.69,0,0,1-13.86-3.21l-1,9.38A40.32,40.32,0,0,0,48.71,98.82ZM25.38,109a2,2,0,0,0,1.5.61h.17a1.54,1.54,0,0,0,1.53-1.39l4.49-41.88L29.54,66l-4.48,41.87A1.58,1.58,0,0,0,25.38,109Zm3.07-69.82a27.77,27.77,0,0,0-3.56,33.24Z"/><path class="cls-2" d="M95.57,105.66a2.3,2.3,0,0,0,2.2-1.62c.48-1.54,1.71-4.29,4.45-5.32a2.3,2.3,0,0,0,0-4.31c-2.74-1-4-3.78-4.45-5.32a2.3,2.3,0,0,0-4.39,0c-.49,1.55-1.71,4.29-4.46,5.32a2.3,2.3,0,0,0,0,4.31c2.75,1,4,3.78,4.46,5.32A2.28,2.28,0,0,0,95.57,105.66Zm2.57-9.09a11.47,11.47,0,0,0-2.57,2.9A11.1,11.1,0,0,0,93,96.57a11.31,11.31,0,0,0,2.57-2.91A11.7,11.7,0,0,0,98.14,96.57Z"/></svg>