<svg id="Layer_1" data-name="Layer 1" xmlns="http://www.w3.org/2000/svg" viewBox="0 0 120 120"><defs><style>.cls-1{fill:#ea1267;}.cls-2{fill:#1b1d4c;}</style></defs><title>Our Purpose</title><path class="cls-1" d="M26.41,33a50,50,0,0,0-7.18,12.8c-.25.67-.49,1.35-.71,2a1.59,1.59,0,0,0-.07.2c-.2.62-.39,1.25-.57,1.88l-.12.43c-.15.56-.3,1.13-.43,1.71l-.15.65c-.11.52-.22,1-.32,1.55l-.15.87c-.08.46-.15.92-.22,1.39s-.09.71-.13,1.06-.1.83-.14,1.25-.07.84-.09,1.27-.06.72-.08,1.09c0,.57,0,1.15,0,1.73,0,.21,0,.42,0,.63,0,.86,0,1.71.07,2.57,0,.14,0,.29,0,.43.05.81.11,1.61.2,2.41l.06.54c.09.77.2,1.53.32,2.29,0,.11,0,.21,0,.31a0,0,0,0,0,0,0A37.77,37.77,0,0,1,4,43.52c0-21.12,9.39-37,34.9-37,24.24,0,40.41-1.2,46.46,10.86a48.79,48.79,0,0,0-8.57-2.71l-.35-.08-1.35-.27-.82-.14L73.11,14c-.64-.09-1.27-.16-1.91-.23l-.78-.07-1.51-.11-.72,0c-.73,0-1.46-.05-2.19-.05h0c-.73,0-1.46,0-2.19.05l-.72,0-1.51.11-.78.07c-.64.07-1.27.14-1.91.23l-1.16.19-.82.14-1.35.27-.35.08a49.09,49.09,0,0,0-15.83,6.5l-.12.07-.06,0a50.66,50.66,0,0,0-5.28,3.87l-.54.46c-.6.52-1.19,1.06-1.77,1.61l-.65.62-.31.29c-.61.61-1.2,1.24-1.78,1.88-.09.09-.17.2-.25.29-.62.7-1.22,1.41-1.8,2.14Z"/><path class="cls-1" d="M41.59,80.4l18.7-11.18L55.74,76.9h0A48,48,0,0,1,41.59,80.4Z"/><path class="cls-1" d="M75.79,63h0A54.79,54.79,0,0,1,63.55,73l-.73-.23,4.88-8.24a2,2,0,0,0-.3-2.42,2,2,0,0,0-1.4-.58,2,2,0,0,0-1,.29l-8.24,4.92a9.88,9.88,0,0,1-.46-2l0-.25c0-.33-.06-.66-.06-1v0A9.81,9.81,0,0,1,75.79,63Z"/><path class="cls-1" d="M83.94,50.67A46.38,46.38,0,0,1,79,59.05a13.79,13.79,0,0,0-13-9.32h0A13.78,13.78,0,0,0,52.22,63.5s0,0,0,.07A11.6,11.6,0,0,0,52.32,65c0,.12,0,.24,0,.36s0,.34.07.51a2,2,0,0,0,.09.35,13.6,13.6,0,0,0,.78,2.54l-7.19,4.3c-.32-.65-.59-1.33-.85-2-.11-.32-.23-.65-.33-1s-.15-.48-.21-.72q-.22-.8-.39-1.62c0-.15,0-.3-.07-.45-.08-.47-.15-1-.2-1.43,0-.17,0-.33-.05-.5q-.09-.93-.09-1.86a22.06,22.06,0,0,1,40-12.83Z"/><path class="cls-1" d="M86.82,36.32c.3.23.59.45.87.69a44.61,44.61,0,0,1-2.07,9.39A26,26,0,0,0,66,37.45h0A26.08,26.08,0,0,0,40,63.5v.13c0,.47,0,.93,0,1.4l0,.45c0,.42.08.85.13,1.27l0,.24c.07.54.16,1.06.26,1.59,0,0,0,0,0,.06.11.52.23,1,.36,1.54a.24.24,0,0,1,0,.08,28.44,28.44,0,0,0,.92,2.79s0,.06.05.09c.27.67.57,1.33.89,2l-7.06,4.22a33.68,33.68,0,0,1-3.23-9.07c0-.07,0-.15,0-.22-.11-.59-.21-1.19-.29-1.78,0-.17,0-.34-.07-.5-.06-.52-.11-1-.15-1.57,0-.2,0-.4-.05-.6,0-.63-.06-1.26-.06-1.9,0-.06,0-.13,0-.19s0-.3,0-.46c0-.46,0-.92,0-1.38l.06-.77c0-.35.05-.71.09-1.06S32,59.25,32,59s.08-.62.13-.93.11-.64.18-1l.15-.79a34.84,34.84,0,0,1,1.67-5.46c.15-.36.3-.72.46-1.08s.31-.7.47-1.05c.09-.19.19-.37.29-.56.38-.75.78-1.49,1.21-2.22.07-.1.13-.21.2-.32a34.66,34.66,0,0,1,6.13-7.41l.16-.14c.67-.6,1.37-1.17,2.08-1.72l.5-.38c.36-.27.72-.53,1.09-.78l.82-.53c.55-.35,1.11-.69,1.68-1l.81-.44c.42-.23.85-.44,1.28-.65s.93-.43,1.41-.63.71-.29,1.07-.42l1.09-.4,1.18-.38q.82-.25,1.65-.45c.29-.08.57-.14.86-.2.59-.13,1.18-.25,1.78-.35l.48-.08c.71-.11,1.44-.19,2.16-.25l.63-.05c.77-.05,1.55-.08,2.33-.08h0c.78,0,1.56,0,2.33.08l.63.05c.73.06,1.45.14,2.16.25l.48.08c.6.1,1.19.22,1.78.35.29.06.57.12.86.2q.83.2,1.65.45l1.18.38,1.09.4c.36.13.72.27,1.07.42s.94.41,1.4.63.87.42,1.29.65l.81.44c.57.32,1.13.66,1.68,1l.82.53c.37.25.73.51,1.09.78Z"/><path class="cls-1" d="M88,31.55c0,.23,0,.46,0,.68a37.89,37.89,0,0,0-17.94-6.75l-.4,0c-.46-.05-.93-.08-1.39-.11l-.48,0c-.59,0-1.19,0-1.78,0h0c-.59,0-1.19,0-1.78,0l-.48,0c-.46,0-.93.06-1.39.11l-.4,0a37.94,37.94,0,0,0-18,6.76c-.23.16-.44.34-.66.5l-.58.44c-.79.61-1.56,1.25-2.29,1.91l-.19.16a38.29,38.29,0,0,0-6.85,8.28l-.2.33c-.52.87-1,1.76-1.46,2.68l-.22.42c-.19.4-.37.8-.55,1.21l-.48,1.15c-.1.25-.22.5-.31.75a1,1,0,0,0,0,.14,37.38,37.38,0,0,0-1.35,4.48,1.52,1.52,0,0,0-.06.2c0,.19-.08.38-.12.57s-.11.57-.17.86-.13.72-.19,1.07-.1.7-.15,1-.09.64-.12,1-.07.81-.11,1.21l-.06.84c0,.53,0,1.06,0,1.59,0,.16,0,.31,0,.46s0,.11,0,.17c0,.74,0,1.47.07,2.2l.06.66c0,.6.1,1.21.18,1.81,0,.17,0,.35.07.53.1.72.22,1.43.36,2.14a.5.5,0,0,1,0,.12,38.25,38.25,0,0,0,2.69,8.27c0,.08.1.15.15.23a33.36,33.36,0,0,1-9.78-4c-.06-.21-.11-.43-.17-.64-.16-.65-.32-1.31-.46-2-.06-.29-.12-.59-.17-.88q-.2-1-.33-2c-.05-.3-.09-.6-.13-.89-.08-.69-.15-1.38-.2-2.08,0-.27-.05-.54-.07-.82C20,65.45,20,64.5,20,63.55a.43.43,0,0,1,0,0s0-.1,0-.15c0-.69,0-1.37.05-2,0-.29,0-.57.05-.86,0-.44.06-.88.1-1.31s.08-.7.12-1,.08-.73.13-1.08.13-.81.19-1.21.1-.59.16-.87c.08-.46.18-.92.28-1.38.05-.21.09-.43.14-.65.13-.51.26-1,.4-1.54,0-.14.07-.28.11-.42.17-.58.34-1.15.52-1.72a1.34,1.34,0,0,1,.07-.18c.2-.63.42-1.25.66-1.87a42.1,42.1,0,0,1,1.75-4h0a45.74,45.74,0,0,1,4.85-7.74c.12-.17.25-.33.38-.5.52-.66,1.07-1.3,1.62-1.93l.26-.3c.62-.68,1.26-1.34,1.91-2l.62-.59c.53-.5,1.06-1,1.61-1.46l.51-.44a45.92,45.92,0,0,1,4.84-3.55l.24-.15a45.79,45.79,0,0,1,10-4.73l.06,0c1.43-.47,2.89-.86,4.36-1.19l.4-.09,1.2-.23.81-.14,1-.17,1.77-.21.71-.07,1.4-.1.65,0c.67,0,1.35-.05,2-.05h0c.68,0,1.35,0,2,.05l.65,0,1.4.1.71.07,1.77.21,1,.17.8.14,1.2.23c.14,0,.27.07.41.09,1.47.33,2.92.72,4.35,1.19l.06,0a45.07,45.07,0,0,1,6.73,2.84A41.19,41.19,0,0,1,88,31.55Z"/><path class="cls-2" d="M116,62.87c0-.58,0-1.16,0-1.73,0-.37,0-.73-.08-1.09s0-.85-.09-1.27-.09-.83-.14-1.25-.08-.71-.13-1.06-.14-.93-.22-1.39l-.15-.87c-.1-.52-.21-1-.32-1.55l-.15-.65c-.13-.58-.28-1.15-.43-1.71l-.12-.43c-.18-.63-.37-1.26-.57-1.88a1.59,1.59,0,0,0-.07-.2c-.22-.68-.46-1.36-.71-2A50,50,0,0,0,105.58,33l-.4-.51c-.58-.73-1.18-1.44-1.8-2.14-.08-.09-.16-.2-.25-.29-.58-.64-1.17-1.27-1.78-1.88l-.31-.29-.65-.62c-.58-.55-1.17-1.09-1.77-1.61l-.54-.46a50.66,50.66,0,0,0-5.28-3.87l-.06,0-.12-.07a48.18,48.18,0,0,0-7.26-3.79,22.67,22.67,0,0,1,1.78,5.22c1.13.58,2.23,1.21,3.31,1.89l.24.15a45.92,45.92,0,0,1,4.84,3.55l.51.44c.55.47,1.08,1,1.61,1.46l.62.59c.65.64,1.29,1.3,1.91,2l.26.3c.55.63,1.1,1.27,1.62,1.93l.39.5a46.33,46.33,0,0,1,4.84,7.74h0c.64,1.31,1.23,2.65,1.74,4,.24.62.46,1.24.67,1.87l.06.18c.18.57.36,1.14.52,1.72,0,.14.08.28.11.42.14.51.27,1,.4,1.54,0,.22.09.44.14.65.1.46.2.92.29,1.38l.15.87c.06.4.13.8.19,1.21s.09.71.13,1.08.09.69.12,1,.07.87.1,1.31c0,.29,0,.57,0,.86,0,.67,0,1.35,0,2,0,0,0,.1,0,.15,0,.82,0,1.64-.07,2.45l-.06.86c0,.52-.08,1-.13,1.56,0,.35-.09.69-.13,1s-.12.93-.19,1.39l-.18,1c-.09.48-.18,1-.28,1.42-.06.3-.13.61-.2.91-.13.55-.27,1.1-.43,1.64,0,.21-.11.42-.17.63a46.6,46.6,0,0,1-2.68,7l0,.06A46.34,46.34,0,0,1,86.05,105h0a46.08,46.08,0,0,1-7,2.72l-.67.18c-.53.15-1.07.29-1.61.42l-1,.21q-.69.15-1.38.27l-1.07.19-1.35.19-1.07.13-1.51.13-.91.06c-.81,0-1.63.07-2.45.07h0c-.94,0-1.88,0-2.81-.09-.24,0-.48,0-.72-.06-.7,0-1.4-.11-2.09-.2l-.79-.11c-.67-.09-1.33-.19-2-.31l-.83-.17c-.63-.12-1.26-.26-1.88-.42l-.88-.23c-.58-.15-1.16-.32-1.74-.5l-1-.32c-.52-.17-1-.36-1.54-.56l-1.09-.41c-.47-.19-.92-.4-1.38-.6L46.13,105c-.64-.31-1.27-.63-1.89-1l4-6.74c.59.31,1.18.61,1.79.89a2.61,2.61,0,0,0,.28.17A38.56,38.56,0,0,0,58.78,101l.1,0c.68.13,1.37.24,2.06.33l.41,0c.6.08,1.22.13,1.83.18l.52,0c.76,0,1.52.07,2.29.07h0c.66,0,1.32,0,2,0,.44,0,.88-.06,1.31-.1l.64,0c.54-.06,1.07-.13,1.61-.21l.3,0c.55-.08,1.11-.18,1.66-.29l.22,0c.55-.12,1.09-.24,1.63-.38l.24-.06c.52-.13,1-.28,1.55-.44l.29-.09c.5-.15,1-.32,1.49-.5l.32-.12c.49-.18,1-.37,1.45-.57l.3-.12.69-.29.19-.12A38.48,38.48,0,0,0,100.7,79.52l.07-.12c.13-.29.25-.58.37-.86,0-.11.09-.22.14-.32.19-.47.38-1,.56-1.42,0-.13.09-.25.13-.38.18-.47.34-1,.49-1.43l.12-.38c.14-.49.28-1,.41-1.46,0-.13.07-.26.1-.39.12-.49.24-1,.34-1.48,0-.15.06-.3.08-.45.1-.48.19-1,.26-1.44,0-.21.06-.43.09-.65.06-.42.12-.84.16-1.27s.06-.78.09-1.17,0-.52.06-.78c0-.67.06-1.34.06-2,0-.15,0-.31,0-.46,0-.53,0-1.07,0-1.59l-.06-.84c0-.41-.06-.81-.11-1.21s-.08-.64-.12-1-.09-.7-.15-1-.12-.72-.19-1.08-.11-.58-.17-.86-.07-.38-.12-.57a1.52,1.52,0,0,0-.06-.2,37.38,37.38,0,0,0-1.35-4.48,1,1,0,0,0,0-.14c-.09-.25-.21-.5-.31-.75L101,48.17c-.18-.41-.36-.81-.55-1.21-.07-.14-.14-.28-.22-.42-.45-.92-.94-1.81-1.46-2.68-.06-.11-.13-.22-.2-.33a38,38,0,0,0-6.85-8.28l-.18-.16c-.74-.66-1.51-1.3-2.3-1.91l-.58-.44c-.22-.16-.43-.34-.66-.5h0a46.45,46.45,0,0,1-.3,4.78c.41.33.81.68,1.21,1l.16.13a34.66,34.66,0,0,1,6.13,7.41l.2.32c.43.73.84,1.47,1.22,2.23.09.18.19.36.28.55.17.35.32.7.47,1.05s.31.72.46,1.08a34.84,34.84,0,0,1,1.67,5.46c.05.26.1.53.16.79s.11.64.17,1,.09.62.13.93.08.57.11.87.06.71.09,1.06l.06.77c0,.46,0,.92,0,1.38,0,.16,0,.31,0,.46,0,.61,0,1.21-.05,1.82,0,.22,0,.43,0,.65,0,.37,0,.73-.09,1.09s-.09.76-.14,1.13c0,.2-.05.39-.08.59-.07.43-.15.86-.23,1.28,0,.14-.05.28-.08.41q-.14.68-.3,1.32l-.09.36c-.11.44-.24.87-.37,1.3,0,.12-.07.23-.1.35-.14.43-.29.85-.44,1.28l-.12.34c-.16.43-.33.85-.5,1.26,0,.1-.09.2-.13.31A34.45,34.45,0,0,1,79.41,95l-.22.09c-.44.19-.9.37-1.35.54l-.21.08c-.47.16-.94.33-1.42.47l-.15,0c-.49.15-1,.3-1.49.43l-.1,0c-.52.13-1,.25-1.57.36l-.08,0c-.53.1-1.06.2-1.6.28l-.16,0c-.51.07-1,.14-1.55.19l-.48,0-1.25.1c-.59,0-1.19,0-1.78,0h0c-.7,0-1.39,0-2.07-.07-.16,0-.32,0-.48,0-.56,0-1.12-.1-1.67-.16l-.36,0c-.65-.09-1.29-.19-1.92-.31h0a34.29,34.29,0,0,1-9.18-3.23l4.19-7.08a19.65,19.65,0,0,0,1.81.82l.18.1a25.63,25.63,0,0,0,6.15,1.58l.2,0c.43.06.86.1,1.3.13l.37,0c.5,0,1,.05,1.52.05h0c.43,0,.85,0,1.28,0l.35,0c.31,0,.63,0,.94-.08l.36,0q.47,0,.93-.12l.33,0,.94-.17.3-.06,1-.22.27-.07,1-.28.22-.07,1-.34.17-.06.51-.19.12-.06A26.2,26.2,0,0,0,90.19,73.12a.43.43,0,0,1,0-.07l.17-.47c0-.09.07-.18.1-.27.11-.3.21-.59.31-.89,0-.11.07-.22.1-.33.09-.29.17-.58.25-.87l.09-.36c.07-.28.14-.57.2-.85s.06-.27.08-.4c.06-.28.11-.55.15-.82s0-.3.08-.45l.09-.78c0-.17.05-.34.06-.51s0-.48.06-.72,0-.38,0-.57,0-.47,0-.7,0-.37,0-.56a25.91,25.91,0,0,0-6.42-17.1,43,43,0,0,1-1.68,4.27A21.92,21.92,0,0,1,88.07,63.5c0,.66,0,1.31-.09,2a.86.86,0,0,0,0,.16c-.06.61-.15,1.21-.26,1.8,0,.11,0,.22,0,.32-.11.56-.25,1.11-.4,1.66,0,.14-.07.27-.12.41-.15.52-.33,1-.52,1.53A22.18,22.18,0,0,1,73.86,84.12c-.51.2-1,.37-1.54.53l-.42.12c-.54.15-1.09.28-1.64.39l-.35.06c-.59.1-1.17.19-1.76.25l-.23,0c-.64.05-1.28.08-1.92.08s-1.22,0-1.83-.08l-.54,0c-.48,0-1-.12-1.43-.2l-.7-.14c-.42-.08-.83-.18-1.23-.29l-.84-.24-.79-.27c-.73-.27-1.45-.56-2.15-.9l4.26-7.18a13.36,13.36,0,0,0,2,.65l.1,0,.19,0c.43.09.86.17,1.31.23l.21,0a14.13,14.13,0,0,0,1.46.08h0a12.62,12.62,0,0,0,1.51-.09c.16,0,.31-.05.47-.07.34,0,.67-.1,1-.18l.19,0,.18-.06A13.81,13.81,0,0,0,79.53,66l0-.13a6.17,6.17,0,0,0,.08-.62c0-.16,0-.31.06-.46,0-.38,0-.76.06-1.14,0,0,0-.11,0-.16A13.62,13.62,0,0,0,79,59.05,49.52,49.52,0,0,1,75.79,63h0c0,.16,0,.33,0,.5v0a8.85,8.85,0,0,1,0,.89c0,.11,0,.22,0,.34a9.82,9.82,0,0,1-7.59,8.29c-.23.06-.46.09-.7.13l-.35,0A9.46,9.46,0,0,1,66,73.3h0a9.42,9.42,0,0,1-1.2-.08l-.22,0c-.34,0-.68-.13-1-.21a57.6,57.6,0,0,1-7.81,3.92h0L39,105.12l-.93-11.86a2,2,0,0,0-1.85-1.83l-11.76-.79L41.59,80.4c-.92.06-1.82.1-2.69.1a32.8,32.8,0,0,1-7.53-.87c.27.59.56,1.16.86,1.73l-6.72,4c-.55-1-1.07-2.07-1.55-3.14-.17-.37-.35-.75-.5-1.13-.35-.83-.67-1.68-1-2.53-.08-.23-.15-.47-.22-.7q-.35-1-.63-2a1.46,1.46,0,0,1-.05-.2,34.42,34.42,0,0,1-4.86-3.56c.12.75.27,1.48.44,2.22,0,.17.07.34.11.51.18.79.38,1.57.6,2.35,0,.11.07.23.1.34a48.89,48.89,0,0,0,4.1,9.93L17,90.49a2,2,0,0,0-.91,2.17,2,2,0,0,0,1.8,1.51l16.39,1.11,1.29,16.39a2,2,0,0,0,1.52,1.78,2.31,2.31,0,0,0,.46,0,2,2,0,0,0,1.7-1l3-5.06c.65.35,1.31.71,2,1l0,0c.86.42,1.72.81,2.59,1.17l.66.25c.74.3,1.48.58,2.23.84l.87.28c.7.22,1.4.44,2.11.64l.89.23c.71.18,1.42.35,2.15.5l.9.18q1.08.19,2.19.36c.3,0,.6.09.91.12.76.1,1.52.17,2.29.23l.83.07c1,.06,2.07.1,3.12.1h0c.89,0,1.78,0,2.66-.07l1-.08,1.67-.13,1.14-.14,1.49-.21,1.13-.2c.52-.09,1-.2,1.54-.3l1-.23c.61-.14,1.22-.3,1.82-.47.22-.06.44-.11.66-.18a50.11,50.11,0,0,0,33.93-34c.07-.21.12-.43.18-.64.17-.61.33-1.22.47-1.83.08-.32.15-.63.21-.94.12-.53.22-1.07.32-1.6.06-.35.13-.71.18-1.06.09-.53.16-1,.22-1.58,0-.35.09-.7.13-1q.09-.9.15-1.8c0-.28,0-.55.06-.83,0-.89.08-1.78.08-2.68C116,63.29,116,63.08,116,62.87Z"/></svg>