<svg id="Layer_1" data-name="Layer 1" xmlns="http://www.w3.org/2000/svg" viewBox="0 0 120 120"><defs><style>.cls-1{fill:#ea1267;}.cls-2{fill:#1b1d4c;}</style></defs><title>Sourcing</title><path class="cls-1" d="M24.77,61.54a2.39,2.39,0,0,0-2.43-2.46,2.47,2.47,0,0,0,0,4.93A2.39,2.39,0,0,0,24.77,61.54Z"/><path class="cls-1" d="M42.43,91.45A2.46,2.46,0,0,0,40,93.89a2.45,2.45,0,1,0,4.89,0A2.46,2.46,0,0,0,42.43,91.45Z"/><path class="cls-1" d="M46.2,59.66a66.91,66.91,0,0,1-6.34-21.15h-1a33.2,33.2,0,0,0-11.69,2.12,44.75,44.75,0,0,0-2.91,14.85,6.21,6.21,0,0,1,4.39,5.59c2,.32,11,1.66,16,1.79A6.41,6.41,0,0,1,46.2,59.66Z"/><path class="cls-1" d="M51,66.29a2.45,2.45,0,0,0,2.45-2.44,2.45,2.45,0,1,0-4.89,0A2.45,2.45,0,0,0,51,66.29Z"/><path class="cls-1" d="M52.5,70.05a6.15,6.15,0,0,1-1.43.16,6.44,6.44,0,0,1-5.69-3.42A90.92,90.92,0,0,1,27.76,64.9a6.44,6.44,0,0,1-2,2,44.12,44.12,0,0,0,1.91,5.61c.21.49.42,1,.64,1.45a0,0,0,0,1,0,0,48.82,48.82,0,0,0,7.08,10.82,41.89,41.89,0,0,0,3.64,3.66,6.16,6.16,0,0,1,3.31-.94,6.48,6.48,0,0,1,5.55,3.14,62.83,62.83,0,0,0,14-6.08,6.53,6.53,0,0,1,.39-3.88A67.79,67.79,0,0,1,52.5,70.05Z"/><path class="cls-1" d="M68.17,85.75a2.47,2.47,0,0,0,0-4.93,2.47,2.47,0,0,0,0,4.93Z"/><path class="cls-1" d="M57.18,62.16a85.9,85.9,0,0,0,19.68-4.94,54.9,54.9,0,0,0-33-18.37,63.17,63.17,0,0,0,5.7,18.75A6.16,6.16,0,0,1,51,57.44,6.52,6.52,0,0,1,57.18,62.16Z"/><path class="cls-1" d="M20.38,55.47A48.55,48.55,0,0,1,22,43.12,37.38,37.38,0,0,0,4,75.49c0,21.11,9.39,37,34.91,37,25.22,0,41.71,1.3,47.13-12.41A47.91,47.91,0,0,1,46.86,98.5a6.21,6.21,0,0,1-4.36,1.82,6.56,6.56,0,0,1-5.47-3,6.28,6.28,0,0,1-.49-5.8,48.76,48.76,0,0,1-4.12-4.14h0l-.1-.12a.46.46,0,0,1-.07-.07s0,0,0,0A49,49,0,0,1,27.65,81l0,0-.3-.52c-.16-.25-.31-.51-.46-.77s-.3-.53-.45-.79-.29-.52-.43-.79-.28-.54-.42-.82-.27-.52-.4-.79-.27-.57-.4-.86-.19-.39-.28-.59h0A48.46,48.46,0,0,1,22,67.92a6.39,6.39,0,0,1-1.61-12.45Z"/><path class="cls-1" d="M82.41,65.25a45,45,0,0,0-3-4.79A90.78,90.78,0,0,1,57,66.15,6.67,6.67,0,0,1,55.87,68a62.91,62.91,0,0,0,9.07,9.8,6.47,6.47,0,0,1,6.48,0A63.53,63.53,0,0,0,82.41,65.25Z"/><path class="cls-1" d="M72.46,88a6.43,6.43,0,0,1-8.56,0,66.66,66.66,0,0,1-15.12,6.51c0,.17,0,.34-.07.5a44,44,0,0,0,38.34.3,6.69,6.69,0,0,1-.14-1A65.9,65.9,0,0,1,72.46,88Z"/><path class="cls-1" d="M88,87.45a45.78,45.78,0,0,0-3.63-18.13A67.65,67.65,0,0,1,74,80.73a6.53,6.53,0,0,1,.39,3.88,62.62,62.62,0,0,0,13.46,5.91l0-.07C88,89.49,88,88.49,88,87.45Z"/><path class="cls-2" d="M109.52,79.64a6.25,6.25,0,0,1,.72,6.52,6.41,6.41,0,0,1-5.74,3.76,6.61,6.61,0,0,1-2.48-.5c-.86.87-1.77,1.71-2.7,2.52a6.21,6.21,0,0,1-.82,5.55,6.63,6.63,0,0,1-5.33,2.83,6.18,6.18,0,0,1-4.11-1.6c-1,.49-2,.94-3,1.34a30.54,30.54,0,0,0,1.88-9.61,6.39,6.39,0,0,1,5.39-2.92A6.21,6.21,0,0,1,97,88.74c.69-.61,1.37-1.24,2-1.88a6.47,6.47,0,0,1,2-8.73,87.72,87.72,0,0,0-8.55-19.37,6.41,6.41,0,0,1-1.38.15l-.57,0a67.22,67.22,0,0,1-6.16,10.43,41.21,41.21,0,0,0-2-4.07,62.61,62.61,0,0,0,4.51-7.92l-.18-.17q-3.61,1.81-7.35,3.3c-.8-1.12-1.64-2.2-2.53-3.24a85.66,85.66,0,0,0,8-3.51,6.53,6.53,0,0,1,.91-4.66A87.12,87.12,0,0,0,47.58,21.47a6.31,6.31,0,0,1-4,2.54,63.45,63.45,0,0,0,.32,14.84,37.66,37.66,0,0,0-4-.34,67,67,0,0,1-.21-15,6.07,6.07,0,0,1-1-.59A46.17,46.17,0,0,0,27.22,40.62,33.83,33.83,0,0,0,22,43.12,48,48,0,0,1,36.37,19.66a6.16,6.16,0,0,1,.8-5.53,6.59,6.59,0,0,1,5.32-2.82,6.22,6.22,0,0,1,3.93,1.42,47.88,47.88,0,0,1,43.5,0,6.22,6.22,0,0,1,4.2-1.66h0a6.57,6.57,0,0,1,5.42,3,6.31,6.31,0,0,1,.57,5.75,47.58,47.58,0,0,1,12,16.71,1.16,1.16,0,0,1,.08.2A48.18,48.18,0,0,1,109.52,79.64ZM93.27,91.47a2.39,2.39,0,0,0-2.45,2.45,2.45,2.45,0,1,0,4.89,0A2.39,2.39,0,0,0,93.27,91.47ZM42.43,15.25a2.47,2.47,0,0,0,0,4.93,2.52,2.52,0,0,0,2.45-2.47A2.46,2.46,0,0,0,42.43,15.25Zm62,70.73a2.47,2.47,0,0,0,0-4.93,2.47,2.47,0,0,0,0,4.93ZM91.1,55a2.47,2.47,0,0,0,0-4.93,2.47,2.47,0,0,0,0,4.93ZM88.84,20.9A6.46,6.46,0,0,1,88,16.13,43.78,43.78,0,0,0,48.58,16a6.5,6.5,0,0,1,.22,1.7,91,91,0,0,1,40,28.82A6.54,6.54,0,0,1,91,46.13c.51-2,.91-3.93,1.24-5.91A63.87,63.87,0,0,0,93.09,30c0-2.08-.09-4.18-.3-6.26A6.38,6.38,0,0,1,88.84,20.9ZM94.18,15a2.44,2.44,0,0,0-2.44,2.44,2.44,2.44,0,1,0,4.88,0A2.45,2.45,0,0,0,94.18,15Zm3.46,7.83a6.5,6.5,0,0,1-.94.5c.18,1.77.28,3.55.32,5.32v.18c0,.76,0,1.53,0,2.29a.89.89,0,0,1,0,.15,67.62,67.62,0,0,1-.68,8.41c0,.06,0,.13,0,.2,0,.26-.1.53-.14.79s-.1.7-.16,1h0c-.33,1.87-.71,3.74-1.2,5.59a4.12,4.12,0,0,1,.41.32A88.33,88.33,0,0,0,108,36.93,43.84,43.84,0,0,0,97.64,22.83Zm11.94,18.05A92,92,0,0,1,97.29,51a6.49,6.49,0,0,1-1.42,5.82,91.55,91.55,0,0,1,9,20.36,6,6,0,0,1,1.45.26A44.64,44.64,0,0,0,109.58,40.88Z"/></svg>